<?xml version="1.0" encoding="utf-8"?>
<!-- Generator: Adobe Illustrator 16.0.0, SVG Export Plug-In . SVG Version: 6.00 Build 0)  -->
<!DOCTYPE svg PUBLIC "-//W3C//DTD SVG 1.1//EN" "http://www.w3.org/Graphics/SVG/1.1/DTD/svg11.dtd">
<svg version="1.1" id="Layer_1" xmlns="http://www.w3.org/2000/svg" xmlns:xlink="http://www.w3.org/1999/xlink" x="0px" y="0px"
	 width="239.801px" height="59.7px" viewBox="0 0 239.801 59.7" enable-background="new 0 0 239.801 59.7" xml:space="preserve">
<g>
	<g>
		<path fill="#FFFFFF" d="M92.274,41.043l-9.431-24.009h4.787l7.271,19.401l7.271-19.401h4.787l-9.431,24.009H92.274z"/>
		<path fill="#FFFFFF" d="M109.015,19.194c0-1.296,1.044-2.34,2.34-2.34s2.34,1.044,2.34,2.34s-1.044,2.339-2.34,2.339
			S109.015,20.49,109.015,19.194z M109.446,41.043V23.657h3.78v17.386H109.446z"/>
		<path fill="#FFFFFF" d="M117.08,32.332c0-5.04,3.671-9.107,8.818-9.107c5.22,0,8.531,3.959,8.531,9.431v0.936h-13.391
			c0.288,2.592,2.231,4.787,5.508,4.787c1.728,0,3.707-0.684,4.967-1.943l1.728,2.484c-1.764,1.655-4.319,2.555-7.055,2.555
			C120.931,41.475,117.08,37.84,117.08,32.332z M125.862,26.321c-3.203,0-4.715,2.484-4.859,4.571h9.791
			C130.686,28.84,129.282,26.321,125.862,26.321z"/>
		<path fill="#FFFFFF" d="M153.365,41.043l-4.067-12.742l-4.031,12.742h-3.96l-5.399-17.386h3.924l3.672,12.634l4.139-12.634h3.348
			l4.104,12.634l3.672-12.634h3.96l-5.399,17.386H153.365z"/>
		<path fill="#FFFFFF" d="M173.707,29.057c0-7.415,5.508-12.418,12.599-12.418c4.823,0,7.847,2.483,9.61,5.363l-3.563,1.872
			c-1.151-2.016-3.491-3.492-6.047-3.492c-4.752,0-8.279,3.6-8.279,8.675c0,5.004,3.527,8.675,8.279,8.675
			c2.556,0,4.896-1.512,6.047-3.491l3.6,1.799c-1.836,2.881-4.823,5.436-9.646,5.436C179.215,41.475,173.707,36.436,173.707,29.057z
			"/>
		<path fill="#FFFFFF" d="M209.85,41.043v-1.908c-1.296,1.512-3.348,2.34-5.651,2.34c-2.808,0-6.012-1.943-6.012-5.759
			c0-4.032,3.168-5.688,6.012-5.688c2.376,0,4.355,0.756,5.651,2.231v-2.591c0-2.016-1.692-3.24-4.067-3.24
			c-1.944,0-3.672,0.72-5.147,2.232l-1.584-2.628c2.016-1.944,4.535-2.808,7.307-2.808c3.888,0,7.271,1.62,7.271,6.263v11.555
			H209.85z M209.85,37.084V34.42c-0.9-1.188-2.52-1.8-4.14-1.8c-2.124,0-3.743,1.26-3.743,3.132c0,1.907,1.619,3.131,3.743,3.131
			C207.33,38.883,208.949,38.271,209.85,37.084z"/>
		<path fill="#FFFFFF" d="M218.526,41.043V23.657h3.78v2.52c1.331-1.656,3.419-2.952,5.651-2.952v3.744
			c-0.324-0.072-0.685-0.108-1.152-0.108c-1.62,0-3.743,1.08-4.499,2.34v11.842H218.526z"/>
		<path fill="#FFFFFF" d="M231.81,36.976V26.933h-2.879v-3.275h2.879v-4.751h3.78v4.751h3.527v3.275h-3.527v9.106
			c0,1.188,0.575,2.088,1.655,2.088c0.72,0,1.368-0.324,1.656-0.647l0.899,2.88c-0.684,0.611-1.8,1.115-3.527,1.115
			C233.321,41.475,231.81,39.891,231.81,36.976z"/>
	</g>
	<g>
		<g>
			<ellipse fill="#FFFFFF" cx="21.639" cy="54.312" rx="5.346" ry="5.388"/>
			<ellipse fill="#FFFFFF" cx="49.848" cy="54.312" rx="5.335" ry="5.388"/>
		</g>
		<path fill="#FFFFFF" d="M54.594,30.981c1.058,0,1.971-0.733,2.215-1.771l6.177-20.303c0.281-1.235-0.474-2.468-1.696-2.756
			c-1.226-0.287-2.443-1.357-2.732-0.124L57.905,7H16.145l-1.211-5.451C14.713,0.49,13.787,0,12.713,0H2.273
			C1.021,0,0,0.735,0,2.001C0,3.268,1.021,4,2.273,4h8.598l5.789,29.284c-0.006,0.022-0.01,0.972-0.018,0.991l-1.482,7.785
			c-0.113,0.563,0.027,1.967,0.385,2.41C15.905,44.915,16.438,46,17.012,46h38.149c1.045,0,1.884-0.948,1.884-1.999
			c0-1.054-0.839-2.001-1.884-2.001H19.311l0.789-4.376L54.594,30.981z"/>
	</g>
</g>
<g>
</g>
<g>
</g>
<g>
</g>
<g>
</g>
<g>
</g>
<g>
</g>
</svg>
