<?xml version="1.0" encoding="utf-8"?>
<!-- Generator: Adobe Illustrator 16.0.0, SVG Export Plug-In . SVG Version: 6.00 Build 0)  -->
<!DOCTYPE svg PUBLIC "-//W3C//DTD SVG 1.1//EN" "http://www.w3.org/Graphics/SVG/1.1/DTD/svg11.dtd">
<svg version="1.1" id="Layer_1" xmlns="http://www.w3.org/2000/svg" xmlns:xlink="http://www.w3.org/1999/xlink" x="0px" y="0px"
	 width="220px" height="60px" viewBox="0 0 220 60" enable-background="new 0 0 220 60" xml:space="preserve">
<g>
	<g>
		<path fill="#9572AF" d="M220,50.899c0,5.026-4.074,9.101-9.101,9.101H9.101C4.074,60,0,55.926,0,50.899V9.101
			C0,4.074,4.074,0,9.101,0h201.799C215.926,0,220,4.074,220,9.101V50.899z"/>
	</g>
	<g display="none">
		<path display="inline" fill="#3C3E3D" d="M220,49.899c0,5.026-4.074,9.101-9.101,9.101H9.101C4.074,59,0,54.926,0,49.899V8.101
			C0,3.074,4.074-1,9.101-1h201.799C215.926-1,220,3.074,220,8.101V49.899z"/>
	</g>
	<g>
		<path fill="#FFFFFF" d="M133.31,39.353v-8.568h-10.92v8.568h-2.324V20.677h2.324v8.036h10.92v-8.036h2.324v18.676H133.31z"/>
		<path fill="#FFFFFF" d="M141.682,39.353V20.677h12.236v2.072h-9.912v6.02h9.716v2.072h-9.716v6.44h9.912v2.071H141.682z"/>
		<path fill="#FFFFFF" d="M158.985,39.353V20.677h2.324v16.604h8.68v2.071H158.985z"/>
		<path fill="#FFFFFF" d="M174.776,39.353V20.677h7.504c3.752,0,5.853,2.576,5.853,5.628c0,3.052-2.128,5.628-5.853,5.628h-5.18
			v7.42H174.776z M185.725,26.305c0-2.1-1.512-3.556-3.724-3.556h-4.9v7.112h4.9C184.213,29.86,185.725,28.405,185.725,26.305z"/>
	</g>
</g>
<path fill="#FFFFFF" d="M100.459,28.749c0-10.862-8.783-19.699-19.584-19.699c-10.798,0-19.581,8.837-19.581,19.699
	c0,3.405,0.888,6.747,2.548,9.698v2.23c0,0.969,0.787,1.756,1.759,1.756h4.144c0.976,0,1.76-0.787,1.76-1.756V29.043
	c0-0.973-0.784-1.757-1.76-1.757h-4.144c-0.261,0-0.51,0.062-0.738,0.167c0.661-8.324,7.588-14.89,16.013-14.89
	c8.433,0,15.364,6.578,16.018,14.908c-0.238-0.118-0.494-0.186-0.776-0.186h-4.143c-0.974,0-1.761,0.784-1.761,1.757v11.634
	c0,0.969,0.787,1.756,1.761,1.756h1.528c-2.031,2.665-5.286,4.631-9.105,5.365c-0.375-0.514-0.975-0.855-1.656-0.855h-3.342
	c-1.127,0-2.052,0.92-2.052,2.053s0.925,2.054,2.052,2.054h3.342c0.945,0,1.733-0.647,1.971-1.522
	c4.74-0.908,8.707-3.552,10.916-7.094h0.489c0.975,0,1.761-0.787,1.761-1.756V38.51C99.562,35.545,100.459,32.178,100.459,28.749z"
	/>
<circle fill="#A1CB6A" cx="28" cy="30.05" r="6"/>
<g>
</g>
<g>
</g>
<g>
</g>
<g>
</g>
<g>
</g>
<g>
</g>
</svg>
