<?xml version="1.0" encoding="utf-8"?>
<!-- Generator: Adobe Illustrator 16.0.0, SVG Export Plug-In . SVG Version: 6.00 Build 0)  -->
<!DOCTYPE svg PUBLIC "-//W3C//DTD SVG 1.1//EN" "http://www.w3.org/Graphics/SVG/1.1/DTD/svg11.dtd">
<svg version="1.1" id="Layer_1" xmlns="http://www.w3.org/2000/svg" xmlns:xlink="http://www.w3.org/1999/xlink" x="0px" y="0px"
	 width="47px" height="35.335px" viewBox="0 0 47 35.335" enable-background="new 0 0 47 35.335" xml:space="preserve">
<path id="No_Wifi" fill="#FFFFFF" d="M21,0c8.334,0,15.799,3.969,20.728,10.165c0.401,0.503,0.35,1.286-0.093,1.74L40.025,13.6
	c-0.446,0.454-1.092,0.394-1.478-0.113C34.429,8.114,28.093,4.667,21,4.667S7.567,8.114,3.45,13.487
	c-0.38,0.506-1.029,0.566-1.476,0.113l-1.607-1.695c-0.444-0.454-0.496-1.237-0.099-1.74C5.205,3.969,12.666,0,21,0z M6.644,16.826
	c-0.366,0.516-0.289,1.328,0.156,1.781l1.655,1.727c0.446,0.454,1.044,0.364,1.389-0.166C12.268,16.454,16.361,14,21,14
	s8.732,2.454,11.156,6.168c0.354,0.53,0.942,0.62,1.389,0.166l1.659-1.727c0.441-0.453,0.519-1.266,0.152-1.781
	C32.063,12.275,26.861,9.337,21,9.337S9.937,12.275,6.644,16.826z M12.428,22.828c-0.408,0.491-0.333,1.303,0.111,1.757l1.688,1.744
	c0.424,0.475,1.022,0.358,1.369-0.159c1.23-1.709,3.198-2.836,5.404-2.836c2.207,0,4.171,1.127,5.389,2.836
	c0.383,0.517,0.96,0.633,1.385,0.159l1.689-1.744c0.434-0.454,0.518-1.266,0.11-1.757c-2.052-2.534-5.128-4.165-8.573-4.165
	S14.479,20.294,12.428,22.828z M21,27.469c-1.52,0-2.75,1.283-2.75,2.87c0,1.573,1.23,2.863,2.75,2.863
	c1.521,0,2.751-1.291,2.751-2.863C23.751,28.751,22.521,27.469,21,27.469z M46.817,33.402l-3.066-3.066l3.066-3.066
	c0.243-0.241,0.243-0.634,0-0.876l-0.877-0.876c-0.241-0.242-0.634-0.242-0.875,0L42,28.583l-3.065-3.067
	c-0.241-0.242-0.634-0.242-0.875,0l-0.876,0.876c-0.244,0.242-0.244,0.635,0,0.876l3.065,3.066l-3.065,3.066
	c-0.244,0.241-0.244,0.634,0,0.876l0.876,0.876c0.241,0.242,0.634,0.242,0.875,0L42,32.087l3.065,3.067
	c0.241,0.242,0.634,0.242,0.875,0l0.877-0.876C47.061,34.036,47.061,33.643,46.817,33.402z"/>
<g>
</g>
<g>
</g>
<g>
</g>
<g>
</g>
<g>
</g>
<g>
</g>
</svg>
