<?xml version="1.0" encoding="utf-8"?>
<!-- Generator: Adobe Illustrator 16.0.0, SVG Export Plug-In . SVG Version: 6.00 Build 0)  -->
<!DOCTYPE svg PUBLIC "-//W3C//DTD SVG 1.1//EN" "http://www.w3.org/Graphics/SVG/1.1/DTD/svg11.dtd">
<svg version="1.1" id="Layer_1" xmlns="http://www.w3.org/2000/svg" xmlns:xlink="http://www.w3.org/1999/xlink" x="0px" y="0px"
	 width="231.065px" height="31px" viewBox="0 0 231.065 31" enable-background="new 0 0 231.065 31" xml:space="preserve">
<g id="OrderingGuide">
	<g>
		<path fill="#FFFFFF" d="M70.403,24.803L62.871,6.127h2.66l6.3,16.128l6.3-16.128h2.66l-7.504,18.676H70.403z"/>
		<path fill="#FFFFFF" d="M84.906,24.803V6.127h2.324v18.676H84.906z"/>
		<path fill="#FFFFFF" d="M93.278,24.803V6.127h12.236v2.072h-9.912v6.02h9.716v2.072h-9.716v6.439h9.912v2.072H93.278z"/>
		<path fill="#FFFFFF" d="M125.169,24.803l-4.116-15.064l-4.115,15.064h-2.521l-5.32-18.676h2.576l4.145,15.568l4.283-15.568h1.933
			l4.284,15.568l4.115-15.568h2.604l-5.348,18.676H125.169z"/>
		<path fill="#FFFFFF" d="M145.469,15.479c0-5.824,4.284-9.66,9.604-9.66c3.332,0,5.628,1.456,7.252,3.472l-1.849,1.176
			c-1.176-1.512-3.164-2.576-5.403-2.576c-4.088,0-7.196,3.108-7.196,7.588c0,4.423,3.108,7.587,7.196,7.587
			c2.239,0,4.088-1.063,5.04-2.016v-3.779h-6.44v-2.073h8.736v6.72c-1.736,1.96-4.284,3.247-7.336,3.247
			C149.753,25.166,145.469,21.275,145.469,15.479z"/>
		<path fill="#FFFFFF" d="M167.869,17.551V6.127h2.353v11.367c0,3.416,1.82,5.572,5.264,5.572c3.444,0,5.292-2.156,5.292-5.572
			V6.127h2.353v11.396c0,4.647-2.576,7.615-7.645,7.615C170.445,25.139,167.869,22.143,167.869,17.551z"/>
		<path fill="#FFFFFF" d="M189.176,24.803V6.127h2.324v18.676H189.176z"/>
		<path fill="#FFFFFF" d="M197.548,24.803V6.127h6.385c5.823,0,9.575,4.06,9.575,9.352c0,5.32-3.752,9.324-9.575,9.324H197.548z
			 M211.101,15.479c0-4.032-2.549-7.28-7.168-7.28h-4.061V22.73h4.061C208.468,22.73,211.101,19.482,211.101,15.479z"/>
		<path fill="#FFFFFF" d="M218.829,24.803V6.127h12.236v2.072h-9.912v6.02h9.716v2.072h-9.716v6.439h9.912v2.072H218.829z"/>
	</g>
	<g>
		<path fill="#FFFFFF" d="M5.319,22.776c0-0.003,0.002-0.005,0.002-0.009v-3.75H4.056v3.75c0,0.004,0,0.006,0,0.009
			c-0.528,0.05-0.942,0.487-0.942,1.029l-0.492,2.825c0,0.574,0.466,1.039,1.041,1.039h2.051c0.575,0,1.039-0.465,1.039-1.039
			l-0.488-2.825C6.264,23.264,5.846,22.824,5.319,22.776z"/>
		<path fill="#FFFFFF" d="M45.596,14.424L39.927,0.968C39.68,0.382,39.107,0,38.469,0H8.688c-0.59,0-1.131,0.328-1.402,0.851
			L0.181,14.479c-0.258,0.491-0.239,1.08,0.048,1.553c0.287,0.473,0.8,0.762,1.352,0.762h10.677l-2.073,8.351
			c-0.03,0.125-0.046,0.252-0.046,0.382c0,3.426,4.793,5.474,12.823,5.474s12.824-2.048,12.824-5.474
			c0-0.13-0.016-0.257-0.046-0.382l-2.075-8.351H44.21c0.005,0,0.01,0,0.015,0c0.873,0,1.58-0.709,1.58-1.582
			C45.805,14.925,45.729,14.656,45.596,14.424z M22.961,27.836c-6.446,0-9.364-1.491-9.641-2.203l2.196-8.839h14.888l2.195,8.839
			C32.325,26.345,29.408,27.836,22.961,27.836z M4.19,13.63L6.9,8.434h15.419c0.351,0,0.633-0.283,0.633-0.632
			c0-0.35-0.282-0.634-0.633-0.634H7.56l2.087-4.003H37.42l4.408,10.466H4.19z"/>
	</g>
</g>
<g>
</g>
<g>
</g>
<g>
</g>
<g>
</g>
<g>
</g>
<g>
</g>
</svg>
