<?xml version="1.0" encoding="utf-8"?>
<!-- Generator: Adobe Illustrator 16.0.0, SVG Export Plug-In . SVG Version: 6.00 Build 0)  -->
<!DOCTYPE svg PUBLIC "-//W3C//DTD SVG 1.1//EN" "http://www.w3.org/Graphics/SVG/1.1/DTD/svg11.dtd">
<svg version="1.1" id="Layer_1" xmlns="http://www.w3.org/2000/svg" xmlns:xlink="http://www.w3.org/1999/xlink" x="0px" y="0px"
	 width="138.621px" height="42px" viewBox="0 0 138.621 42" enable-background="new 0 0 138.621 42" xml:space="preserve">
<g>
	<g>
		<path fill="#FFFFFF" d="M77.121,30.303v-9.18H65.422v9.18h-2.49V10.293h2.49v8.61h11.699v-8.61h2.49v20.009H77.121z"/>
		<path fill="#FFFFFF" d="M86.092,30.303V10.293h13.109v2.22H88.582v6.45h10.409v2.22H88.582v6.9h10.619v2.22H86.092z"/>
		<path fill="#FFFFFF" d="M104.631,30.303V10.293h2.49v17.79h9.3v2.22H104.631z"/>
		<path fill="#FFFFFF" d="M121.551,30.303V10.293h8.04c4.02,0,6.27,2.76,6.27,6.03s-2.28,6.029-6.27,6.029h-5.55v7.95H121.551z
			 M133.28,16.323c0-2.25-1.62-3.81-3.989-3.81h-5.25v7.62h5.25C131.66,20.133,133.28,18.573,133.28,16.323z"/>
	</g>
</g>
<path fill="#FFFFFF" d="M39.165,19.699C39.165,8.837,30.382,0,19.581,0C8.783,0,0,8.837,0,19.699c0,3.405,0.888,6.747,2.548,9.698
	v2.23c0,0.969,0.787,1.756,1.759,1.756H8.45c0.976,0,1.76-0.787,1.76-1.756V19.994c0-0.973-0.784-1.757-1.76-1.757H4.307
	c-0.261,0-0.51,0.062-0.738,0.167c0.661-8.324,7.588-14.89,16.013-14.89c8.433,0,15.364,6.578,16.018,14.908
	c-0.238-0.118-0.494-0.186-0.776-0.186H30.68c-0.974,0-1.761,0.784-1.761,1.757v11.634c0,0.969,0.787,1.756,1.761,1.756h1.528
	c-2.031,2.665-5.286,4.631-9.105,5.365c-0.375-0.514-0.975-0.855-1.656-0.855h-3.342c-1.127,0-2.052,0.92-2.052,2.053
	S16.978,42,18.104,42h3.342c0.945,0,1.733-0.647,1.971-1.522c4.74-0.908,8.707-3.552,10.916-7.094h0.489
	c0.975,0,1.761-0.787,1.761-1.756V29.46C38.268,26.495,39.165,23.128,39.165,19.699z"/>
<g>
</g>
<g>
</g>
<g>
</g>
<g>
</g>
<g>
</g>
<g>
</g>
</svg>
