<?xml version="1.0" encoding="utf-8"?>
<!-- Generator: Adobe Illustrator 16.0.0, SVG Export Plug-In . SVG Version: 6.00 Build 0)  -->
<!DOCTYPE svg PUBLIC "-//W3C//DTD SVG 1.1//EN" "http://www.w3.org/Graphics/SVG/1.1/DTD/svg11.dtd">
<svg version="1.1" id="Layer_1" xmlns="http://www.w3.org/2000/svg" xmlns:xlink="http://www.w3.org/1999/xlink" x="0px" y="0px"
	 width="138.621px" height="42px" viewBox="0 0 138.621 42" enable-background="new 0 0 138.621 42" xml:space="preserve">
<g>
	<g>
		<path fill="#FFFFFF" d="M77.121,30.303v-9.18H65.422v9.18h-2.49v-20.01h2.49v8.61h11.699v-8.61h2.49v20.009L77.121,30.303
			L77.121,30.303z"/>
		<path fill="#FFFFFF" d="M86.092,30.303v-20.01h13.109v2.22H88.582v6.45h10.409v2.22H88.582v6.9h10.619v2.22H86.092z"/>
		<path fill="#FFFFFF" d="M104.631,30.303v-20.01h2.49v17.79h9.3v2.22H104.631z"/>
		<path fill="#FFFFFF" d="M121.551,30.303v-20.01h8.04c4.021,0,6.271,2.76,6.271,6.03c0,3.27-2.279,6.028-6.271,6.028h-5.55v7.949
			L121.551,30.303L121.551,30.303z M133.279,16.323c0-2.25-1.619-3.81-3.988-3.81h-5.25v7.62h5.25
			C131.66,20.133,133.279,18.573,133.279,16.323z"/>
	</g>
</g>
<path fill="#FFFFFF" d="M20,0C8.972,0,0,8.972,0,20c0,11.028,8.972,20,20,20s20-8.972,20-20C40,8.972,31.028,0,20,0z M20,36.75
	c-9.236,0-16.75-7.514-16.75-16.75c0-9.236,7.514-16.75,16.75-16.75S36.75,10.764,36.75,20C36.75,29.236,29.236,36.75,20,36.75z"/>
<path fill="#FFFFFF" d="M20,8.876c-3.366,0-6.221,2.411-6.787,5.732c-0.009,0.065-0.004,0.117,0,0.14
	c0.006-0.017,0.084,0.003,0.225,0.003h2.625c0.082,0,0.3,0,0.313-0.316c0-1.272,1.038-2.31,2.313-2.31h2.625
	c1.275,0,2.313,1.038,2.313,2.313v2.625c0,1.275-1.038,2.313-2.313,2.313h-1.969c-0.542,0-0.969,0-0.969,1.625v3.938
	c0,0.176,0.138,0.313,0.313,0.313h2.625c0.175,0,0.313-0.138,0.313-0.313V22.47l0.664-0.237c2.743-0.978,4.586-3.583,4.586-6.481
	C26.875,11.96,23.79,8.876,20,8.876z"/>
<path fill="#FFFFFF" d="M21.313,27.874h-2.625c-0.175,0-0.313,0.138-0.313,0.313v2.625c0,0.176,0.138,0.313,0.313,0.313h2.625
	c0.175,0,0.313-0.138,0.313-0.313v-2.625C21.626,28.012,21.488,27.874,21.313,27.874z"/>
</svg>
