<?xml version="1.0" encoding="utf-8"?>
<!-- Generator: Adobe Illustrator 16.0.0, SVG Export Plug-In . SVG Version: 6.00 Build 0)  -->
<!DOCTYPE svg PUBLIC "-//W3C//DTD SVG 1.1//EN" "http://www.w3.org/Graphics/SVG/1.1/DTD/svg11.dtd">
<svg version="1.1" id="Layer_1" xmlns="http://www.w3.org/2000/svg" xmlns:xlink="http://www.w3.org/1999/xlink" x="0px" y="0px"
	 width="290.417px" height="56.375px" viewBox="0 0 290.417 56.375" enable-background="new 0 0 290.417 56.375"
	 xml:space="preserve">
<g id="Logo_New">
	<g>
		<g>
			<path fill="#FFFFFF" d="M21.949,46.173c-6.376,0-11.564-5.188-11.564-11.564c0-6.376,5.188-11.563,11.564-11.563
				c6.376,0,11.563,5.188,11.563,11.563C33.512,40.986,28.325,46.173,21.949,46.173z"/>
			<path fill="#FFFFFF" d="M21.949,24.045c5.825,0,10.563,4.738,10.563,10.563s-4.739,10.564-10.563,10.564
				c-5.825,0-10.564-4.739-10.564-10.564S16.124,24.045,21.949,24.045 M21.949,22.045c-6.928,0-12.564,5.636-12.564,12.563
				s5.637,12.564,12.564,12.564c6.927,0,12.563-5.637,12.563-12.564S28.876,22.045,21.949,22.045L21.949,22.045z"/>
		</g>
		<path fill="#FFFFFF" d="M36.632,18.891l-2.623,2.417c3.625,3.289,5.916,8.021,5.916,13.302c0,9.926-8.047,17.978-17.977,17.978
			c-9.931,0-17.978-8.052-17.978-17.978c0-9.929,8.047-17.977,17.978-17.977c1.417,0,2.787,0.18,4.109,0.49l2.823-1.739
			c0.353-0.2,0.707-0.418,1.059-0.652l0.071-0.043c-0.002-0.001-0.004-0.001-0.006-0.002c3.327-2.231,6.461-6.024,7.054-12.546
			l0.148-1.625l-1.623-0.183c-0.053-0.005-0.538-0.058-1.307-0.058c-2.623,0-9.785,0.646-13.122,7.27
			c-0.352-0.804-0.726-1.524-1.095-2.11l-0.882-1.4l-2.8,1.763l0.882,1.4c0.823,1.308,1.766,3.565,2.073,6.054
			C8.676,14.544,0.417,23.603,0.417,34.609c0,11.887,9.639,21.533,21.532,21.533c11.892,0,21.531-9.646,21.531-21.533
			C43.479,28.399,40.836,22.82,36.632,18.891z M33.487,3.627c-1.111,5.718-4.77,8.472-7.847,9.795
			c-0.882-0.159-1.789-0.254-2.716-0.297C24.002,5.459,29.585,3.808,33.487,3.627z"/>
	</g>
	<g>
		<path fill="#FFFFFF" d="M98.053,30.309c0-4-1.318-7.322-3.954-9.962c-2.763-2.679-6.351-4.021-10.764-4.021
			c-0.866,0-2.125,0.185-3.774,0.556c-1.648,0.371-2.865,0.559-3.648,0.559c-1.274,0-1.917-0.371-1.917-1.115V2.097h-6.185V51.22
			h6.185V23.742c3.641-0.824,3.68-0.84,5.474-1.128c1.648-0.266,3-0.412,3.866-0.412c2.72,0,4.866,0.764,6.434,2.289
			c1.401,1.405,2.102,3.241,2.102,5.507V51.22h6.182V30.309z"/>
		<path fill="#FFFFFF" d="M134.921,45.712c-2.433-1.608-3.648-3.669-3.648-6.187V27.029c0-2.887-1.156-5.39-3.468-7.516
			c-2.309-2.125-5.276-3.187-8.905-3.187c-4.661,0-9.276,1.255-13.852,3.777l2.717,5.008c3.713-2.02,7.425-3.033,11.135-3.033
			c2.021,0,3.607,0.537,4.765,1.61c0.945,0.864,1.421,1.814,1.421,2.845c0,2.35-2.351,3.527-7.053,3.527
			c-10.02,0-15.028,3.567-15.028,10.7c0,3.879,1.362,6.789,4.08,8.725c2.352,1.69,5.406,2.537,9.155,2.537
			c2.393,0,4.813-0.369,7.268-1.111c2.454-0.746,4.153-1.115,5.104-1.115c1.073,0,2.061,0.332,2.969,0.99l1.792,1.298l3.586-5.009
			L134.921,45.712z M121.438,45.775c-1.734,0.454-3.382,0.682-4.951,0.682c-2.061,0-3.733-0.437-5.009-1.301
			c-1.526-0.99-2.287-2.449-2.287-4.395c0-2.225,1.132-3.732,3.4-4.514c1.358-0.453,3.43-0.684,6.216-0.684
			c2.782,0,4.872-0.326,6.277-0.988v5.076c0,1.852,0.33,3.527,0.988,5.008C125.578,44.746,124.033,45.115,121.438,45.775z"/>
		<path fill="#FFFFFF" d="M155.146,16.263c-1.362,0-3.209,0.424-5.536,1.271c-2.33,0.846-4.011,1.267-5.044,1.267
			c-0.619,0-1.48-0.39-2.596-1.174l-1.421-0.991l-3.59,5.072l0.869,0.495c1.522,0.868,2.599,1.691,3.215,2.476
			c0.868,1.072,1.302,2.436,1.302,4.083V51.22h6.183V28.761c0-1.732-0.227-3.281-0.682-4.64c1.238-0.413,2.459-0.847,3.651-1.299
			c1.438-0.455,2.658-0.679,3.648-0.679c2.103,0,4.434,0.764,6.989,2.286l2.846-5.194C161.432,17.253,158.155,16.263,155.146,16.263
			z"/>
		<path fill="#FFFFFF" d="M166.53,18.863l12.493,34.088l2.463,0.021c5.873,0.102,8.144-2.58,9.97-7.941l9.588-26.168l-5.815-2.165
			l-9.589,26.23c-0.242,0.661-0.885,1.398-1.914,1.77l-1.053,0.149l-10.326-28.149L166.53,18.863z"/>
		<path fill="#FFFFFF" d="M230.421,20.597c-3.382-2.849-7.199-4.27-11.446-4.27c-4.985,0-9.173,1.751-12.552,5.255
			c-3.383,3.509-5.073,7.757-5.073,12.75c0,4.986,1.716,9.246,5.164,12.774c3.444,3.526,7.576,5.288,12.396,5.288
			c4.71,0,9.035-1.524,12.995-4.576l-3.218-4.706c-3.178,2.394-6.411,3.591-9.712,3.591c-2.641,0-5.072-0.928-7.297-2.782
			c-2.062-1.694-3.095-3.323-3.095-4.886c0-1.118,0.581-1.677,1.736-1.677h19.232c1.733,0,3.199-0.585,4.394-1.761
			c1.192-1.178,1.795-2.605,1.795-4.297C235.741,27.132,233.96,23.565,230.421,20.597z M229.066,31.734H210.69
			c-1.406,0-2.434,0.326-3.094,0.988c0.371-3.051,1.546-5.569,3.523-7.548c2.147-2.104,4.784-3.155,7.922-3.155
			c2.596,0,4.986,0.823,7.169,2.472c2.314,1.778,3.469,3.918,3.469,6.437C229.679,31.462,229.473,31.734,229.066,31.734z"/>
		<path fill="#FFFFFF" d="M262.09,33.277c-2.434-1.732-5.527-2.596-9.279-2.596c-2.313,0-4.124-0.436-5.443-1.303
			c-1.153-0.741-1.734-1.691-1.734-2.845c0-1.154,0.622-2.176,1.857-3.063c1.237-0.886,2.931-1.327,5.073-1.327
			c3.131,0,6.163,0.968,9.095,2.906l3.582-4.575c-4.291-2.806-8.513-4.212-12.677-4.212c-4.081,0-7.361,1.074-9.834,3.22
			c-2.23,1.977-3.341,4.37-3.341,7.176c0,2.68,1.129,4.971,3.402,6.864c2.513,2.064,5.855,3.096,10.02,3.096
			c2.475,0,4.348,0.496,5.63,1.486c1.029,0.824,1.542,1.872,1.542,3.15c0,1.405-0.596,2.6-1.79,3.592
			c-1.361,1.155-3.239,1.732-5.629,1.732c-2.478,0-4.642-0.391-6.498-1.178c-1.604-0.699-3.423-1.914-5.438-3.648l-3.651,4.578
			c4.613,4.084,9.817,6.123,15.588,6.123c3.667,0,6.781-0.926,9.338-2.782c2.848-2.062,4.268-4.868,4.268-8.417
			C266.169,37.876,264.808,35.217,262.09,33.277z"/>
		<path fill="#FFFFFF" d="M290.417,45.343h-3.216c-1.735,0-3.011-0.332-3.832-0.992c-1.035-0.822-1.549-2.287-1.549-4.391V23.688
			h8.597v-5.874h-9.772c0.784-0.993,1.176-2.932,1.176-5.821V2.097h-6.187v9.897c0,2.229-0.455,3.758-1.357,4.583
			c-0.91,0.822-2.376,1.238-4.394,1.238h-0.619v5.874h6.37V39.96c0,7.506,3.856,11.26,11.567,11.26h3.216V45.343z"/>
	</g>
</g>
<g>
</g>
<g>
</g>
<g>
</g>
<g>
</g>
<g>
</g>
<g>
</g>
</svg>
