<?xml version="1.0" encoding="utf-8"?>
<!-- Generator: Adobe Illustrator 16.0.0, SVG Export Plug-In . SVG Version: 6.00 Build 0)  -->
<!DOCTYPE svg PUBLIC "-//W3C//DTD SVG 1.1//EN" "http://www.w3.org/Graphics/SVG/1.1/DTD/svg11.dtd">
<svg version="1.1" id="Layer_1" xmlns="http://www.w3.org/2000/svg" xmlns:xlink="http://www.w3.org/1999/xlink" x="0px" y="0px"
	 width="24px" height="24.001px" viewBox="0 0 24 24.001" enable-background="new 0 0 24 24.001" xml:space="preserve">
<g>
	<path fill="#A0D468" d="M12,0C5.383,0,0,5.383,0,12s5.383,12,12,12s12-5.383,12-12S18.617,0,12,0z M17.506,9.437l-6.686,6.532
		c-0.201,0.194-0.526,0.194-0.728,0l-3.6-3.515c-0.201-0.194-0.201-0.508,0-0.703l0.727-0.703c0.201-0.193,0.526-0.193,0.727,0
		l2.509,2.461l5.595-5.478c0.201-0.194,0.526-0.194,0.727,0l0.727,0.703C17.708,8.928,17.708,9.244,17.506,9.437z"/>
	<path fill="#1A1A1A" d="M16.779,8.031c-0.201-0.194-0.526-0.194-0.727,0l-5.595,5.478l-2.509-2.461
		c-0.201-0.193-0.526-0.193-0.727,0l-0.727,0.703c-0.201,0.195-0.201,0.509,0,0.703l3.6,3.515c0.201,0.194,0.526,0.194,0.728,0
		l6.686-6.532c0.201-0.193,0.201-0.508,0-0.702L16.779,8.031z"/>
</g>
<g>
</g>
<g>
</g>
<g>
</g>
<g>
</g>
<g>
</g>
<g>
</g>
<g>
</g>
<g>
</g>
<g>
</g>
<g>
</g>
<g>
</g>
<g>
</g>
<g>
</g>
<g>
</g>
<g>
</g>
</svg>
