<?xml version="1.0" encoding="utf-8"?>
<!-- Generator: Adobe Illustrator 16.0.0, SVG Export Plug-In . SVG Version: 6.00 Build 0)  -->
<!DOCTYPE svg PUBLIC "-//W3C//DTD SVG 1.1//EN" "http://www.w3.org/Graphics/SVG/1.1/DTD/svg11.dtd">
<svg version="1.1" id="Layer_1" xmlns="http://www.w3.org/2000/svg" xmlns:xlink="http://www.w3.org/1999/xlink" x="0px" y="0px"
	 width="377.282px" height="71.683px" viewBox="0 0 377.282 71.683" enable-background="new 0 0 377.282 71.683"
	 xml:space="preserve">
<g>
	<linearGradient id="SVGID_1_" gradientUnits="userSpaceOnUse" x1="16.2104" y1="32.5474" x2="38.9988" y2="55.3357">
		<stop  offset="0" style="stop-color:#55A4D9"/>
		<stop  offset="1" style="stop-color:#7EBE48"/>
	</linearGradient>
	<path fill="url(#SVGID_1_)" d="M27.604,27.82c-8.889,0-16.121,7.232-16.121,16.119c0,8.891,7.232,16.123,16.121,16.123
		c8.891,0,16.122-7.232,16.122-16.123C43.725,35.052,36.494,27.82,27.604,27.82z"/>
	<linearGradient id="SVGID_2_" gradientUnits="userSpaceOnUse" x1="11.6338" y1="15.9326" x2="53.2267" y2="57.5255">
		<stop  offset="0" style="stop-color:#55A4D9"/>
		<stop  offset="1" style="stop-color:#7EBE48"/>
	</linearGradient>
	<path fill="url(#SVGID_2_)" d="M46.47,23.885l-3.364,3.1c4.651,4.22,7.589,10.294,7.589,17.067
		c0,12.736-10.326,23.068-23.066,23.068c-12.742,0-23.067-10.332-23.067-23.068c0-12.738,10.326-23.065,23.067-23.065
		c1.818,0,3.577,0.232,5.274,0.629l2.727-1.639c5.037-2.609,10.487-7.693,11.387-17.585l0.19-2.086l-2.083-0.233
		C45.057,0.065,44.436,0,43.447,0C40.081,0,30.892,0.831,26.61,9.325C26.16,8.294,25.68,7.37,25.208,6.62l-1.129-1.798l-3.596,2.262
		l1.131,1.797c1.056,1.68,2.266,4.578,2.659,7.769C10.599,18.309,0,29.932,0,44.053c0,15.254,12.369,27.63,27.628,27.63
		c15.258,0,27.627-12.376,27.627-27.63C55.256,36.085,51.864,28.928,46.47,23.885z M42.432,4.3
		c-1.423,7.329-6.107,10.861-10.054,12.562c-1.143-0.201-2.311-0.32-3.5-0.375C30.262,6.65,37.426,4.532,42.432,4.3z"/>
</g>
<path id="harvest" fill="#FFFFFF" d="M126.749,66.688h-8.052V39.049c0-2.952-0.914-5.344-2.738-7.174
	c-2.042-1.985-4.837-2.981-8.38-2.981c-1.128,0-2.888,0.191-5.035,0.538c-2.336,0.375-2.386,0.397-7.129,1.471v35.786H87.36V2.708
	h8.055v18.533c0,0.971,0.835,1.452,2.496,1.452c1.02,0,2.604-0.244,4.752-0.727c2.146-0.483,3.787-0.725,4.915-0.725
	c5.749,0,10.42,1.748,14.019,5.237c3.434,3.438,5.151,7.765,5.151,12.974V66.688z M177.419,61.291l-4.671,6.521l-2.333-1.689
	c-1.183-0.857-2.469-1.291-3.866-1.291c-1.24,0-3.453,0.483-6.649,1.453c-3.196,0.967-6.35,1.449-9.466,1.449
	c-4.883,0-8.861-1.104-11.924-3.305c-3.539-2.523-5.313-6.311-5.313-11.363c0-9.292,6.525-13.937,19.574-13.937
	c6.124,0,9.186-1.534,9.186-4.594c0-1.342-0.62-2.58-1.85-3.706c-1.509-1.396-3.575-2.097-6.205-2.097
	c-4.833,0-9.667,1.32-14.503,3.95l-3.539-6.522c5.96-3.284,11.972-4.919,18.042-4.919c4.726,0,8.591,1.383,11.597,4.15
	c3.01,2.769,4.516,6.029,4.516,9.789v16.276c0,3.278,1.581,5.963,4.751,8.057L177.419,61.291z M163.243,58.143
	c-0.859-1.928-1.287-4.109-1.287-6.523v-6.61c-1.83,0.863-4.551,1.289-8.176,1.289c-3.627,0-6.326,0.299-8.096,0.89
	c-2.955,1.018-4.429,2.98-4.429,5.879c0,2.532,0.993,4.434,2.979,5.723c1.661,1.126,3.839,1.694,6.523,1.694
	c2.043,0,4.19-0.296,6.448-0.888C160.584,58.735,162.598,58.254,163.243,58.143z M213.915,25.029l-3.703,6.766
	c-3.332-1.983-6.365-2.978-9.105-2.978c-1.289,0-2.877,0.293-4.752,0.884c-1.555,0.588-3.142,1.155-4.756,1.692
	c0.592,1.77,0.891,3.787,0.891,6.043v29.25h-8.055v-29.25c0-2.146-0.566-3.922-1.696-5.318c-0.803-1.023-2.203-2.095-4.187-3.226
	l-1.133-0.643l4.676-6.606l1.853,1.29c1.452,1.022,2.575,1.53,3.381,1.53c1.347,0,3.533-0.549,6.569-1.65
	c3.032-1.102,5.437-1.654,7.209-1.654C205.026,21.159,209.296,22.449,213.915,25.029z M223.506,21.725l13.453,36.662l1.368-0.194
	c1.343-0.483,2.178-1.442,2.492-2.304l12.489-34.164l7.575,2.821l-12.486,34.082c-2.381,6.982-5.336,10.475-12.987,10.344
	l-3.206-0.027l-16.271-44.398L223.506,21.725z M306.072,40.744c0,2.203-0.78,4.062-2.336,5.598
	c-1.555,1.529-3.465,2.292-5.723,2.292h-25.049c-1.506,0-2.263,0.728-2.263,2.181c0,2.038,1.349,4.16,4.033,6.365
	c2.897,2.416,6.063,3.623,9.507,3.623c4.295,0,8.508-1.559,12.645-4.676l4.191,6.129c-5.155,3.975-10.791,5.961-16.923,5.961
	c-6.278,0-11.662-2.296-16.145-6.889c-4.492-4.594-6.726-10.143-6.726-16.637c0-6.5,2.198-12.035,6.604-16.604
	c4.404-4.565,9.854-6.846,16.353-6.846c5.529,0,10.5,1.852,14.902,5.562C303.758,30.67,306.072,35.316,306.072,40.744z
	 M298.179,40.259c0-3.28-1.503-6.068-4.516-8.384c-2.844-2.147-5.958-3.219-9.339-3.219c-4.085,0-7.519,1.369-10.317,4.109
	c-2.576,2.578-4.104,5.858-4.588,9.829c0.858-0.859,2.198-1.285,4.025-1.285h23.935C297.91,41.309,298.179,40.955,298.179,40.259z
	 M345.705,53.71c0,4.622-1.853,8.278-5.559,10.961c-3.33,2.419-7.385,3.624-12.162,3.624c-7.517,0-14.292-2.654-20.301-7.975
	l4.755-5.961c2.625,2.257,4.997,3.838,7.084,4.75c2.416,1.025,5.236,1.534,8.462,1.534c3.112,0,5.558-0.751,7.332-2.257
	c1.555-1.291,2.331-2.847,2.331-4.677c0-1.665-0.664-3.03-2.011-4.104c-1.665-1.29-4.109-1.935-7.33-1.935
	c-5.422,0-9.777-1.344-13.048-4.033c-2.961-2.466-4.434-5.447-4.434-8.939c0-3.655,1.447-6.772,4.354-9.347
	c3.216-2.794,7.489-4.193,12.805-4.193c5.423,0,10.92,1.83,16.509,5.485l-4.664,5.958c-3.818-2.523-7.765-3.784-11.845-3.784
	c-2.791,0-4.997,0.575-6.604,1.728c-1.611,1.158-2.422,2.488-2.422,3.991c0,1.502,0.756,2.741,2.259,3.705
	c1.72,1.13,4.076,1.697,7.09,1.697c4.887,0,8.916,1.123,12.084,3.381C343.933,45.845,345.705,49.309,345.705,53.71z M377.282,66.688
	h-4.185c-10.043,0-15.067-4.891-15.067-14.666V30.83h-8.295v-7.651h0.807c2.63,0,4.535-0.541,5.72-1.611
	c1.177-1.075,1.769-3.066,1.769-5.969V2.708h8.059v12.89c0,3.763-0.512,6.288-1.531,7.58h12.725v7.651h-11.193v21.191
	c0,2.74,0.67,4.648,2.017,5.721c1.069,0.859,2.731,1.291,4.992,1.291h4.185V66.688z"/>
<g>
</g>
<g>
</g>
<g>
</g>
<g>
</g>
<g>
</g>
<g>
</g>
</svg>
